<?xml version="1.0" encoding="iso-8859-1"?>
<!-- Generator: Adobe Illustrator 19.0.0, SVG Export Plug-In . SVG Version: 6.00 Build 0)  -->
<svg version="1.1" id="Layer_1" xmlns="http://www.w3.org/2000/svg" xmlns:xlink="http://www.w3.org/1999/xlink" x="0px" y="0px"
	 viewBox="0 0 570.5 570.5" style="enable-background:new 0 0 570.5 570.5;" xml:space="preserve"
     width="33" height="45">
<path id="XMLID_494_" style="fill:#3080E8;" d="M0.5,467.75v-0.006c-0.167,0-0.333,0.006-0.5,0.006H0.5z"/>
<g id="XMLID_495_">
	<g id="XMLID_496_">
		<rect id="XMLID_497_" x="335.5" y="67.75" style="fill:#88888F;" width="30" height="420"/>
	</g>
	<polygon id="XMLID_498_" style="fill:#a41f1f;" points="490.5,487.75 350.5,117.75 210.5,487.75 	"/>
	<path id="XMLID_499_" style="fill:#de1d1d;" d="M350.5,117.75l-190,370h380L350.5,117.75z M351,347.25l0.006,25.5
		c-0.001,0.167-0.006-25.167-0.006-25c0,54.952,44.547,125,99.5,125H251C306.228,472.75,351,402.478,351,347.25z"/>
	<g id="XMLID_505_">
		<g id="XMLID_503_">
			<rect id="XMLID_504_" x="145.5" y="437.75" style="fill:#88888F;" width="30" height="50"/>
		</g>
	</g>
	<g id="XMLID_510_">
		<g id="XMLID_508_">
			<rect id="XMLID_509_" x="525.5" y="437.75" style="fill:#88888F;" width="30" height="50"/>
		</g>
	</g>
	<polygon id="XMLID_512_" style="fill:#bb1010;" points="160.5,487.75 210.5,487.75 326.644,164.208 	"/>
	<polygon id="XMLID_513_" style="fill:#e15a5a;" points="374.356,164.208 490.5,487.75 540.5,487.75 	"/>
	<g id="XMLID_514_">
		<rect id="XMLID_515_" x="130.5" y="472.75" style="fill:#48a662;" width="440" height="30"/>
	</g>
</g>
<g>
</g>
<g>
</g>
<g>
</g>
<g>
</g>
<g>
</g>
<g>
</g>
<g>
</g>
<g>
</g>
<g>
</g>
<g>
</g>
<g>
</g>
<g>
</g>
<g>
</g>
<g>
</g>
<g>
</g>
</svg>
